<svg width="20" height="20" viewBox="0 0 20 20" fill="none" xmlns="http://www.w3.org/2000/svg">
<g id="thumbs-up">
<path id="Icon" d="M5.83317 18.3332V9.1665M1.6665 10.8332V16.6665C1.6665 17.587 2.4127 18.3332 3.33317 18.3332H14.5217C15.7556 18.3332 16.805 17.4329 16.9926 16.2133L17.8901 10.38C18.1231 8.86558 16.9514 7.49984 15.4191 7.49984H12.4998C12.0396 7.49984 11.6665 7.12674 11.6665 6.6665V3.72137C11.6665 2.5865 10.7465 1.6665 9.61164 1.6665C9.34095 1.6665 9.09565 1.82592 8.98572 2.07327L6.05312 8.67162C5.91937 8.97256 5.62093 9.1665 5.29161 9.1665H3.33317C2.4127 9.1665 1.6665 9.9127 1.6665 10.8332Z" stroke="black" stroke-width="1.5" stroke-linecap="round" stroke-linejoin="round"/>
</g>
</svg>
