<svg width="20" height="20" viewBox="0 0 20 20" fill="none" xmlns="http://www.w3.org/2000/svg">
<path d="M5.83329 18.3334V9.16675M1.66663 10.8334V16.6667C1.66663 17.5872 2.41282 18.3334 3.33329 18.3334H14.5218C15.7558 18.3334 16.8051 17.4331 16.9928 16.2136L17.8902 10.3802C18.1232 8.86583 16.9515 7.50008 15.4193 7.50008H12.5C12.0397 7.50008 11.6666 7.12699 11.6666 6.66675V3.72161C11.6666 2.58674 10.7466 1.66675 9.61176 1.66675C9.34107 1.66675 9.09578 1.82616 8.98584 2.07352L6.05324 8.67186C5.91949 8.9728 5.62106 9.16675 5.29173 9.16675H3.33329C2.41282 9.16675 1.66663 9.91294 1.66663 10.8334Z" stroke="black" stroke-width="1.5" stroke-linecap="round" stroke-linejoin="round"/>
</svg>
